<?xml version="1.0" standalone="no"?>
<!DOCTYPE svg PUBLIC "-//W3C//DTD SVG 20010904//EN"
 "http://www.w3.org/TR/2001/REC-SVG-20010904/DTD/svg10.dtd">
<svg version="1.0" xmlns="http://www.w3.org/2000/svg"
 width="70.000000pt" height="70.000000pt" viewBox="0 0 70.000000 70.000000"
 preserveAspectRatio="xMidYMid meet">
<metadata>
Created by potrace 1.14, written by Peter Selinger 2001-2017
</metadata>
<g transform="translate(0.000000,70.000000) scale(0.100000,-0.100000)"
fill="#000000" stroke="none">
<path d="M0 350 l0 -350 350 0 350 0 0 350 0 350 -350 0 -350 0 0 -350z m510
171 c0 -60 -14 -72 -35 -32 -21 41 -43 51 -114 51 l-61 0 0 -85 0 -85 31 0
c40 0 68 16 79 46 19 48 30 25 30 -62 0 -63 -3 -85 -12 -82 -7 3 -15 15 -18
29 -7 27 -42 49 -82 49 l-28 0 0 -83 c0 -51 5 -88 12 -95 7 -7 39 -12 75 -12
54 0 68 4 88 24 13 13 27 36 31 50 3 14 12 26 20 26 11 0 14 -16 14 -65 l0
-65 -186 0 c-142 0 -185 3 -182 12 3 7 15 15 29 18 l24 6 3 181 2 181 -30 10
c-67 24 -30 32 140 32 l170 0 0 -49z m-283 -473 c-3 -7 -5 -2 -5 12 0 14 2 19
5 13 2 -7 2 -19 0 -25z m63 0 c0 -5 -4 -8 -10 -8 -5 0 -10 10 -10 23 0 18 2
19 10 7 5 -8 10 -18 10 -22z m80 22 c0 -5 -2 -10 -4 -10 -3 0 -8 5 -11 10 -3
6 -1 10 4 10 6 0 11 -4 11 -10z m-50 -10 c0 -5 -4 -10 -10 -10 -5 0 -10 5 -10
10 0 6 5 10 10 10 6 0 10 -4 10 -10z m127 -12 c-3 -8 -6 -5 -6 6 -1 11 2 17 5
13 3 -3 4 -12 1 -19z"/>
</g>
</svg>
