<svg viewBox="0 0 104 24" xmlns="http://www.w3.org/2000/svg">
    <path d="M17.8793 6.93079C15.6809 6.93079 14.0648 7.80225 13.0624 9.25741C12.1582 7.76952 10.6703 6.93079 8.66553 6.93079C6.59666 6.93079 5.07603 7.73951 4.17184 9.09785V7.38357H0V23.5472H4.17184V14.463C4.17184 12.0382 5.43335 10.8094 7.21173 10.8094C8.95738 10.8094 9.92704 11.9755 9.92704 13.882V23.5486H14.0975V14.4644C14.0975 12.0395 15.2622 10.8108 17.1047 10.8108C18.8503 10.8108 19.82 11.9768 19.82 13.8834V23.5499H23.9918V13.5943C23.9905 9.5479 21.5643 6.93079 17.8793 6.93079Z" fill="white" />
    <path d="M29.6311 0.301392C28.2414 0.301392 27.0781 1.49607 27.0781 2.8885C27.0781 4.27821 28.2414 5.44152 29.6311 5.44152C31.0535 5.44152 32.2182 4.27821 32.2182 2.8885C32.2168 1.49744 31.0535 0.301392 29.6311 0.301392Z" fill="white" />
    <path d="M31.7327 7.38354H27.5609V23.5472H31.7327V7.38354Z" fill="white" />
    <path d="M71.0017 6.93079C68.8347 6.93079 67.1545 7.73952 66.1848 9.19195V0L62.013 1.32015V7.78861H55.4109V3.26082L51.2404 4.52233V7.78998H48.4269V11.7968H51.2404V18.118C51.2404 22.4821 53.2124 24.1964 59.0645 23.5486V19.7654C56.671 19.895 55.4109 19.8623 55.4109 18.118V11.7968H62.013V23.5486H66.1848V14.819C66.1848 12.0068 67.7041 10.8094 69.7416 10.8094C71.6154 10.8094 72.941 11.9414 72.941 14.1398V23.5486H77.1129V13.6243C77.1115 9.32151 74.4276 6.93079 71.0017 6.93079Z" fill="white" />
    <path d="M88.3724 6.93079C83.6196 6.93079 79.8378 10.6485 79.8378 15.4654C79.8378 20.2823 83.6196 24 88.3724 24C93.1252 24 96.9397 20.2823 96.9397 15.4654C96.9397 10.6485 93.1252 6.93079 88.3724 6.93079ZM88.3724 19.9277C85.9148 19.9277 84.0082 18.0852 84.0082 15.4654C84.0082 12.8456 85.9162 11.0031 88.3724 11.0031C90.8613 11.0031 92.7706 12.8456 92.7706 15.4654C92.7692 18.0852 90.8613 19.9277 88.3724 19.9277Z" fill="white" />
    <path d="M46.5857 15.7095C46.2393 15.344 45.8002 15.0317 45.2683 14.7753C44.7351 14.5189 44.105 14.3007 43.3767 14.1234L40.5496 13.4565C39.8486 13.2888 39.3345 13.076 39.0058 12.8183C38.6785 12.5605 38.5135 12.2305 38.5135 11.8241C38.5135 11.5677 38.5748 11.3317 38.6976 11.119C38.8203 10.9062 38.9935 10.7235 39.2172 10.5707C39.4408 10.418 39.7013 10.2994 40.0027 10.2148C40.3028 10.1302 40.6314 10.0893 40.986 10.0893C41.7238 10.0893 42.3157 10.2407 42.7617 10.5421C43.2076 10.8435 43.4804 11.2608 43.5813 11.7954H47.2554C47.1463 10.223 46.5503 9.02012 45.4661 8.18411C44.3832 7.34811 42.8803 6.93079 40.9601 6.93079C40.0218 6.93079 39.1694 7.05489 38.3989 7.30174C37.6297 7.54858 36.9697 7.89771 36.4187 8.34777C35.8677 8.79782 35.4422 9.34197 35.1422 9.97886C34.8421 10.6171 34.6921 11.3208 34.6921 12.0927C34.6921 13.3583 35.0494 14.3771 35.7641 15.1476C36.4787 15.9182 37.5684 16.4773 39.0344 16.8237L41.7661 17.4906C42.4303 17.6488 42.9131 17.8534 43.2131 18.1057C43.5131 18.358 43.6631 18.6867 43.6631 19.0917C43.6631 19.359 43.599 19.5977 43.4722 19.8104C43.3454 20.0232 43.1667 20.2059 42.939 20.3587C42.7112 20.5114 42.4357 20.6301 42.1125 20.7146C41.7893 20.7992 41.4361 20.8401 41.0542 20.8401C40.2537 20.8401 39.6154 20.6887 39.1422 20.3873C38.6689 20.0859 38.3553 19.6536 38.1998 19.0904H34.3212C34.3853 19.8813 34.583 20.581 34.9158 21.1892C35.2485 21.7975 35.6959 22.3089 36.2605 22.7249C36.8251 23.1395 37.5029 23.4558 38.2953 23.6741C39.0876 23.8923 39.9795 24 40.9724 24C41.9557 24 42.8544 23.8718 43.67 23.614C44.4841 23.3563 45.1838 22.9935 45.7661 22.5244C46.3484 22.0552 46.8012 21.4893 47.1244 20.8265C47.4477 20.1637 47.6086 19.4231 47.6086 18.6021C47.6086 17.9884 47.524 17.4456 47.3563 16.971C47.1885 16.4964 46.9308 16.0764 46.5857 15.7095Z" fill="white" />
    <path d="M101.023 18.4712C99.5036 18.4712 98.2762 19.6986 98.2762 21.2192C98.2762 22.7385 99.5036 23.9645 101.023 23.9645C102.544 23.9645 103.771 22.7371 103.771 21.2192C103.771 19.6986 102.544 18.4712 101.023 18.4712Z" fill="#00FFF8" />
</svg>    